<svg xmlns="http://www.w3.org/2000/svg" xmlns:xlink="http://www.w3.org/1999/xlink" width="52" zoomAndPan="magnify" viewBox="0 0 39 38.999999" height="52" preserveAspectRatio="xMidYMid meet" version="1.2"><defs><clipPath id="8dc859c23a"><path d="M 2.039062 2 L 37 2 L 37 37.5 L 2.039062 37.5 Z M 2.039062 2 "/></clipPath></defs><g id="b2208cb3a9"><rect x="0" width="39" y="0" height="38.999999" style="fill:#ffffff;fill-opacity:1;stroke:none;"/><rect x="0" width="39" y="0" height="38.999999" style="fill:#ffffff;fill-opacity:1;stroke:none;"/><g clip-rule="nonzero" clip-path="url(#8dc859c23a)"><path style=" stroke:none;fill-rule:evenodd;fill:#0119ff;fill-opacity:1;" d="M 15.355469 30.699219 C 16.183594 30.890625 16.722656 31.535156 16.796875 32.449219 C 16.816406 32.699219 16.992188 32.894531 17.238281 32.941406 C 18.320312 33.152344 18.941406 34.121094 18.765625 35.128906 C 18.746094 35.246094 18.722656 35.332031 18.703125 35.390625 C 18.609375 35.664062 18.738281 35.960938 19.003906 36.070312 C 19.65625 36.351562 20.488281 36.722656 20.957031 36.914062 C 21.972656 37.328125 23.546875 36.050781 22.226562 35.316406 L 20.117188 34.289062 C 19.570312 34.136719 19.597656 33.449219 20.289062 33.601562 C 20.582031 33.667969 20.898438 33.890625 21.179688 34.035156 C 21.929688 34.414062 22.570312 34.789062 23.199219 35.101562 C 24.726562 35.851562 26.027344 34.1875 24.835938 33.496094 C 24.28125 33.175781 23.570312 32.78125 23.175781 32.554688 C 22.796875 32.339844 22.402344 32.121094 22.023438 31.890625 C 21.652344 31.667969 20.972656 31.46875 21.269531 30.996094 C 21.570312 30.671875 22.367188 31.332031 23.003906 31.691406 C 23.539062 31.992188 25.011719 32.761719 25.558594 33.078125 C 27.070312 34.007812 28.496094 32.753906 27.117188 31.507812 C 26.921875 31.292969 23.023438 28.960938 22.566406 28.753906 C 22.035156 28.328125 22.597656 27.855469 22.984375 28.109375 L 28.632812 31.84375 C 29.949219 32.378906 31.191406 30.828125 30.152344 29.839844 C 27.292969 27.640625 24.34375 25.328125 21.050781 23.546875 C 20.484375 23.226562 19.546875 22.691406 19.234375 22.59375 C 18 22.214844 16.5625 24.554688 15.777344 25.195312 C 14.621094 25.828125 13.152344 25.460938 12.671875 24.683594 C 12.199219 23.910156 13.296875 22.5 14.074219 21.476562 C 14.195312 21.320312 14.21875 21.125 14.148438 20.941406 C 14.074219 20.757812 13.921875 20.636719 13.726562 20.609375 C 13.40625 20.558594 13.085938 20.507812 12.765625 20.429688 C 12.28125 20.308594 12.011719 20.128906 11.738281 19.964844 C 11.609375 19.886719 11.46875 19.863281 11.324219 19.898438 C 11.179688 19.933594 11.066406 20.019531 10.988281 20.148438 C 10.175781 21.488281 7.925781 25.515625 7.285156 26.769531 C 7.179688 26.980469 7.214844 27.222656 7.375 27.390625 C 7.695312 27.730469 7.957031 28.085938 8.238281 28.449219 C 8.324219 28.558594 8.480469 28.585938 8.601562 28.511719 C 9.601562 27.871094 10.820312 27.878906 11.5 29.019531 C 11.550781 29.101562 11.632812 29.148438 11.726562 29.152344 C 11.824219 29.15625 11.90625 29.113281 11.960938 29.035156 L 12.128906 28.789062 C 13.085938 27.800781 14.886719 28.625 14.929688 30.183594 C 14.9375 30.4375 15.109375 30.644531 15.355469 30.699219 Z M 35.914062 26.554688 L 33.886719 27.800781 C 33.757812 27.882812 33.617188 27.902344 33.46875 27.867188 C 33.320312 27.828125 33.207031 27.742188 33.128906 27.609375 L 28.519531 19.609375 C 28.375 19.351562 28.457031 19.027344 28.707031 18.871094 L 36.121094 14.3125 C 36.292969 14.207031 36.496094 14.203125 36.671875 14.300781 C 36.851562 14.398438 36.953125 14.574219 36.953125 14.777344 L 36.953125 24.699219 C 36.953125 25.476562 36.578125 26.148438 35.914062 26.554688 Z M 21.3125 2.5 C 25.050781 3.5 27.265625 7.339844 26.265625 11.078125 C 25.265625 14.816406 21.421875 17.03125 17.6875 16.03125 C 13.949219 15.03125 11.730469 11.1875 12.734375 7.453125 C 13.734375 3.714844 17.574219 1.5 21.3125 2.5 Z M 17.316406 8.371094 L 18.710938 9.992188 L 22.132812 6.492188 C 22.300781 6.320312 22.589844 6.332031 22.757812 6.507812 L 23.667969 7.457031 C 23.839844 7.632812 23.828125 7.910156 23.65625 8.082031 L 19.429688 12.320312 C 18.871094 12.855469 18.28125 12.808594 17.820312 12.273438 L 15.652344 9.808594 C 15.488281 9.628906 15.511719 9.34375 15.695312 9.1875 L 16.691406 8.324219 C 16.785156 8.242188 16.890625 8.207031 17.015625 8.21875 C 17.136719 8.226562 17.238281 8.277344 17.316406 8.371094 Z M 9.359375 28.808594 C 8.96875 28.945312 8.164062 30.039062 8.140625 30.480469 C 8.101562 31.226562 8.871094 31.988281 9.65625 31.71875 C 9.9375 31.621094 10.964844 30.378906 10.992188 29.917969 C 11.035156 29.121094 10.167969 28.363281 9.359375 28.808594 Z M 16.132812 34.050781 L 15.09375 35.527344 C 14.472656 36.820312 15.828125 37.5 16.660156 37.003906 C 16.855469 36.886719 17.96875 35.421875 18.078125 35.128906 C 18.460938 34.09375 16.957031 32.878906 16.132812 34.050781 Z M 14.574219 31.425781 C 14.144531 31.65625 12.980469 33.453125 12.660156 33.890625 C 11.738281 35.160156 13.296875 36.148438 14.105469 35.566406 C 14.367188 35.417969 15.523438 33.75 15.835938 33.324219 C 16.71875 32.113281 15.457031 30.949219 14.574219 31.425781 Z M 12.761719 29.089844 C 12.335938 29.273438 10.675781 31.5625 10.214844 32.25 C 9.378906 33.496094 10.8125 34.679688 11.808594 33.90625 C 12.164062 33.628906 13.324219 31.828125 13.648438 31.398438 C 13.953125 30.992188 14.460938 30.535156 14.175781 29.816406 C 13.996094 29.355469 13.359375 28.835938 12.761719 29.089844 Z M 30.132812 28.515625 C 30.570312 28.140625 31.214844 27.542969 31.597656 27.15625 C 31.769531 26.980469 31.804688 26.722656 31.683594 26.507812 L 28.855469 21.4375 C 28.628906 21.054688 28.261719 20.464844 28.019531 19.992188 C 27.90625 19.773438 27.667969 19.660156 27.425781 19.707031 C 23.808594 20.4375 21.867188 17.246094 17.726562 18.507812 C 16.726562 18.8125 13.960938 22.414062 13.285156 23.898438 C 13.179688 24.128906 13.246094 24.398438 13.445312 24.554688 C 16.078125 26.609375 16.546875 20.378906 20.289062 22.402344 C 23.753906 24.269531 26.378906 26.109375 29.441406 28.527344 C 29.648438 28.691406 29.933594 28.6875 30.132812 28.515625 Z M 2.046875 24.902344 L 2.046875 14.980469 C 2.046875 14.777344 2.148438 14.605469 2.324219 14.503906 C 2.503906 14.40625 2.707031 14.410156 2.878906 14.519531 L 10.289062 19.078125 C 10.542969 19.230469 10.625 19.558594 10.476562 19.8125 L 5.867188 27.816406 C 5.792969 27.945312 5.679688 28.03125 5.53125 28.070312 C 5.382812 28.109375 5.242188 28.085938 5.109375 28.007812 L 3.085938 26.761719 C 2.421875 26.351562 2.046875 25.683594 2.046875 24.902344 Z M 2.046875 24.902344 "/></g></g></svg>