<svg xmlns="http://www.w3.org/2000/svg" xmlns:xlink="http://www.w3.org/1999/xlink" width="52" zoomAndPan="magnify" viewBox="0 0 39 38.999999" height="52" preserveAspectRatio="xMidYMid meet" version="1.2"><defs><clipPath id="d3d8efc3eb"><path d="M 1.496094 1.449219 L 37.496094 1.449219 L 37.496094 37.449219 L 1.496094 37.449219 Z M 1.496094 1.449219 "/></clipPath></defs><g id="da54b89f6b"><rect x="0" width="39" y="0" height="38.999999" style="fill:#ffffff;fill-opacity:1;stroke:none;"/><rect x="0" width="39" y="0" height="38.999999" style="fill:#ffffff;fill-opacity:1;stroke:none;"/><g clip-rule="nonzero" clip-path="url(#d3d8efc3eb)"><path style=" stroke:none;fill-rule:nonzero;fill:#0119ff;fill-opacity:1;" d="M 19.433594 1.480469 C 9.464844 1.515625 1.496094 9.625 1.625 19.59375 C 1.648438 21.613281 2.007812 23.574219 2.699219 25.476562 C 3.390625 27.375 4.378906 29.105469 5.660156 30.667969 C 5.867188 30.921875 5.984375 31.210938 6.011719 31.53125 C 6.039062 31.855469 5.976562 32.160156 5.816406 32.441406 L 4.277344 35.203125 C 3.851562 35.96875 4.546875 36.871094 5.394531 36.65625 L 10.609375 35.328125 C 10.984375 35.234375 11.347656 35.269531 11.695312 35.4375 C 14.027344 36.574219 16.492188 37.167969 19.085938 37.222656 C 29.109375 37.449219 37.339844 29.4375 37.371094 19.410156 C 37.402344 9.496094 29.351562 1.449219 19.433594 1.480469 Z M 19.496094 35.027344 C 18.46875 35.027344 17.449219 34.925781 16.441406 34.722656 C 15.429688 34.523438 14.449219 34.226562 13.5 33.832031 C 12.550781 33.4375 11.644531 32.957031 10.789062 32.382812 C 9.933594 31.8125 9.144531 31.164062 8.417969 30.4375 C 7.6875 29.707031 7.039062 28.917969 6.46875 28.0625 C 5.894531 27.207031 5.414062 26.300781 5.019531 25.351562 C 4.625 24.402344 4.328125 23.421875 4.128906 22.414062 C 3.925781 21.402344 3.828125 20.382812 3.828125 19.355469 C 3.828125 10.699219 10.84375 3.683594 19.496094 3.683594 C 28.117188 3.683594 35.113281 10.644531 35.167969 19.253906 C 35.222656 27.890625 28.132812 35.027344 19.496094 35.027344 Z M 19.496094 35.027344 "/></g><path style=" stroke:none;fill-rule:nonzero;fill:#0119ff;fill-opacity:1;" d="M 16.695312 11.738281 L 16.703125 11.75 L 17.636719 13.605469 C 17.847656 14.015625 17.910156 14.449219 17.828125 14.90625 C 17.746094 15.359375 17.535156 15.742188 17.199219 16.058594 C 16.863281 16.371094 16.652344 16.753906 16.570312 17.203125 C 16.488281 17.65625 16.546875 18.085938 16.753906 18.496094 C 17.3125 19.625 18.285156 21.175781 19.769531 22.296875 C 20.109375 22.554688 20.492188 22.695312 20.917969 22.71875 C 21.34375 22.742188 21.742188 22.640625 22.105469 22.417969 L 22.707031 22.054688 C 23.285156 21.703125 23.890625 21.644531 24.523438 21.886719 L 26.917969 22.796875 C 27.175781 22.894531 27.402344 23.035156 27.601562 23.226562 C 27.804688 23.414062 27.960938 23.632812 28.074219 23.886719 C 28.183594 24.136719 28.246094 24.398438 28.253906 24.675781 C 28.261719 24.949219 28.21875 25.214844 28.121094 25.472656 C 28.089844 25.546875 28.058594 25.617188 28.023438 25.6875 L 27.359375 26.972656 C 27.253906 27.179688 27.113281 27.367188 26.941406 27.527344 C 26.769531 27.691406 26.578125 27.820312 26.363281 27.914062 C 26.148438 28.011719 25.921875 28.070312 25.6875 28.089844 C 25.453125 28.109375 25.222656 28.089844 24.992188 28.027344 C 21.234375 27.058594 12.28125 23.679688 11.558594 13.460938 C 11.53125 13.046875 11.617188 12.65625 11.820312 12.292969 C 12.023438 11.933594 12.3125 11.65625 12.679688 11.464844 L 13.902344 10.839844 C 14.144531 10.714844 14.40625 10.640625 14.679688 10.617188 C 14.953125 10.59375 15.222656 10.625 15.484375 10.710938 C 15.746094 10.792969 15.980469 10.925781 16.191406 11.101562 C 16.402344 11.28125 16.570312 11.492188 16.695312 11.738281 Z M 16.695312 11.738281 "/></g></svg>