<svg xmlns="http://www.w3.org/2000/svg" xmlns:xlink="http://www.w3.org/1999/xlink" width="52" zoomAndPan="magnify" viewBox="0 0 39 38.999999" height="52" preserveAspectRatio="xMidYMid meet" version="1.2"><defs><clipPath id="e8b5acba33"><path d="M 1.648438 1.199219 L 37.648438 1.199219 L 37.648438 37.199219 L 1.648438 37.199219 Z M 1.648438 1.199219 "/></clipPath></defs><g id="3baa72744f"><rect x="0" width="39" y="0" height="38.999999" style="fill:#ffffff;fill-opacity:1;stroke:none;"/><rect x="0" width="39" y="0" height="38.999999" style="fill:#ffffff;fill-opacity:1;stroke:none;"/><g clip-rule="nonzero" clip-path="url(#e8b5acba33)"><path style=" stroke:none;fill-rule:nonzero;fill:#0119ff;fill-opacity:1;" d="M 20.679688 1.765625 L 22.964844 4.035156 C 23.332031 4.402344 23.867188 4.542969 24.367188 4.410156 L 27.480469 3.585938 C 28.257812 3.382812 29.050781 3.839844 29.261719 4.613281 L 30.105469 7.722656 C 30.238281 8.222656 30.628906 8.613281 31.128906 8.75 L 34.238281 9.59375 C 35.015625 9.800781 35.472656 10.597656 35.265625 11.371094 L 34.441406 14.488281 C 34.308594 14.988281 34.453125 15.519531 34.816406 15.890625 L 37.089844 18.171875 C 37.652344 18.742188 37.652344 19.660156 37.089844 20.230469 L 34.816406 22.515625 C 34.453125 22.882812 34.308594 23.414062 34.441406 23.914062 L 35.265625 27.03125 C 35.472656 27.804688 35.011719 28.601562 34.238281 28.8125 L 31.128906 29.652344 C 30.628906 29.789062 30.238281 30.179688 30.105469 30.679688 L 29.261719 33.789062 C 29.050781 34.5625 28.257812 35.023438 27.480469 34.816406 L 24.367188 33.992188 C 23.867188 33.859375 23.332031 34 22.964844 34.367188 L 20.679688 36.636719 C 20.113281 37.203125 19.195312 37.203125 18.625 36.636719 L 16.339844 34.367188 C 15.972656 34 15.4375 33.859375 14.9375 33.992188 L 11.824219 34.816406 C 11.046875 35.023438 10.253906 34.5625 10.042969 33.789062 L 9.199219 30.679688 C 9.066406 30.179688 8.675781 29.789062 8.175781 29.652344 L 5.066406 28.8125 C 4.292969 28.601562 3.832031 27.804688 4.039062 27.03125 L 4.863281 23.914062 C 4.996094 23.414062 4.851562 22.882812 4.488281 22.515625 L 2.214844 20.230469 C 1.652344 19.660156 1.652344 18.742188 2.214844 18.171875 L 4.488281 15.890625 C 4.851562 15.523438 4.996094 14.988281 4.863281 14.488281 L 4.039062 11.371094 C 3.832031 10.597656 4.292969 9.800781 5.066406 9.59375 L 8.175781 8.75 C 8.675781 8.613281 9.066406 8.222656 9.199219 7.722656 L 10.042969 4.613281 C 10.253906 3.839844 11.046875 3.382812 11.824219 3.585938 L 14.9375 4.410156 C 15.4375 4.542969 15.972656 4.402344 16.339844 4.035156 L 18.625 1.765625 C 19.191406 1.199219 20.109375 1.199219 20.679688 1.765625 Z M 20.679688 1.765625 "/></g><path style=" stroke:none;fill-rule:nonzero;fill:#ffffff;fill-opacity:1;" d="M 16.246094 26.15625 C 15.894531 26.15625 15.542969 26.023438 15.277344 25.753906 L 10.929688 21.40625 C 10.390625 20.871094 10.390625 20 10.929688 19.464844 C 11.464844 18.925781 12.335938 18.925781 12.871094 19.464844 L 16.246094 22.839844 L 26.433594 12.652344 C 26.96875 12.117188 27.839844 12.117188 28.378906 12.652344 C 28.914062 13.1875 28.914062 14.058594 28.378906 14.59375 L 17.21875 25.753906 C 16.949219 26.023438 16.597656 26.15625 16.246094 26.15625 Z M 16.246094 26.15625 "/></g></svg>