<svg xmlns="http://www.w3.org/2000/svg" xmlns:xlink="http://www.w3.org/1999/xlink" width="52" zoomAndPan="magnify" viewBox="0 0 39 38.999999" height="52" preserveAspectRatio="xMidYMid meet" version="1.2"><defs><clipPath id="6da57f675f"><path d="M 1.34375 23 L 7 23 L 7 31 L 1.34375 31 Z M 1.34375 23 "/></clipPath><clipPath id="dff88705aa"><path d="M 25 2.707031 L 31 2.707031 L 31 12 L 25 12 Z M 25 2.707031 "/></clipPath><clipPath id="ce1c892891"><path d="M 27 19 L 37.34375 19 L 37.34375 24 L 27 24 Z M 27 19 "/></clipPath></defs><g id="1620a85f1c"><rect x="0" width="39" y="0" height="38.999999" style="fill:#ffffff;fill-opacity:1;stroke:none;"/><rect x="0" width="39" y="0" height="38.999999" style="fill:#ffffff;fill-opacity:1;stroke:none;"/><path style=" stroke:none;fill-rule:nonzero;fill:#0119ff;fill-opacity:1;" d="M 18.75 9.804688 C 17.699219 12.167969 15.292969 16.703125 11.75 18.417969 C 9.914062 19.300781 10.140625 21.257812 10.324219 22.054688 C 10.761719 23.960938 12.371094 26.015625 14.207031 26.015625 C 14.574219 26.015625 14.941406 25.929688 15.292969 25.757812 C 16.542969 25.152344 18.164062 24.847656 20.105469 24.847656 C 22.519531 24.847656 24.921875 25.3125 26.410156 25.667969 Z M 27.703125 27.421875 L 27.695312 27.421875 C 27.625 27.421875 27.554688 27.414062 27.488281 27.390625 C 27.453125 27.378906 23.71875 26.234375 20.105469 26.234375 C 18.375 26.234375 16.957031 26.496094 15.894531 27.007812 C 15.355469 27.269531 14.785156 27.402344 14.207031 27.402344 C 11.652344 27.402344 9.539062 24.839844 8.972656 22.367188 C 8.433594 20.027344 9.246094 18.082031 11.144531 17.167969 C 15.425781 15.101562 18.019531 7.9375 18.046875 7.867188 C 18.140625 7.601562 18.382812 7.421875 18.664062 7.40625 C 18.945312 7.394531 19.203125 7.546875 19.324219 7.796875 L 28.273438 26.332031 C 28.351562 26.445312 28.398438 26.582031 28.398438 26.730469 C 28.398438 27.113281 28.085938 27.421875 27.703125 27.421875 "/><path style=" stroke:none;fill-rule:nonzero;fill:#0119ff;fill-opacity:1;" d="M 28.796875 26.238281 C 29.007812 26.675781 28.824219 27.199219 28.390625 27.410156 L 27.796875 27.695312 C 27.359375 27.90625 26.835938 27.722656 26.625 27.289062 L 17.597656 8.589844 C 17.386719 8.15625 17.570312 7.628906 18.003906 7.417969 L 18.597656 7.132812 C 19.035156 6.921875 19.558594 7.105469 19.769531 7.542969 C 19.769531 7.542969 22.109375 8.617188 25.761719 16.175781 C 29.410156 23.738281 28.796875 26.238281 28.796875 26.238281 "/><path style=" stroke:none;fill-rule:nonzero;fill:#0119ff;fill-opacity:1;" d="M 27.628906 15.273438 C 27.019531 14.015625 23.925781 14.25 22.664062 14.859375 C 22.292969 15.039062 21.988281 15.296875 21.753906 15.605469 C 22.410156 16.15625 22.9375 17.085938 23.28125 17.722656 C 23.585938 18.285156 24.050781 18.933594 24.363281 19.601562 C 24.535156 19.558594 24.703125 19.5 24.871094 19.421875 C 26.128906 18.8125 28.238281 16.535156 27.628906 15.273438 "/><path style=" stroke:none;fill-rule:nonzero;fill:#0119ff;fill-opacity:1;" d="M 17.421875 31.761719 C 18.300781 32.46875 18.441406 33.753906 17.734375 34.632812 L 17.449219 34.988281 C 16.738281 35.863281 15.453125 36.003906 14.574219 35.296875 L 7.96875 29.972656 C 7.089844 29.261719 6.949219 27.976562 7.660156 27.097656 L 7.945312 26.746094 C 8.652344 25.867188 9.9375 25.730469 10.816406 26.4375 L 17.421875 31.761719 "/><path style=" stroke:none;fill-rule:nonzero;fill:#0119ff;fill-opacity:1;" d="M 15.898438 26.125 C 16.046875 26.4375 15.917969 26.816406 15.605469 26.964844 L 7.832031 30.71875 C 7.519531 30.867188 7.144531 30.738281 6.992188 30.425781 L 2.933594 22.015625 C 2.78125 21.703125 2.914062 21.324219 3.226562 21.171875 L 10.996094 17.421875 C 11.308594 17.269531 11.683594 17.402344 11.835938 17.714844 L 15.898438 26.125 "/><path style=" stroke:none;fill-rule:nonzero;fill:#0119ff;fill-opacity:1;" d="M 6.761719 25.351562 C 5.585938 22.910156 3.824219 21.316406 2.828125 21.796875 C 1.832031 22.277344 1.984375 24.648438 3.164062 27.089844 C 4.34375 29.53125 6.105469 31.121094 7.097656 30.640625 C 8.09375 30.160156 7.941406 27.792969 6.761719 25.351562 "/><g clip-rule="nonzero" clip-path="url(#6da57f675f)"><path style=" stroke:none;fill-rule:nonzero;fill:#0119ff;fill-opacity:1;" d="M 5.753906 25.835938 C 4.859375 23.984375 3.328125 22.871094 2.332031 23.351562 C 1.339844 23.832031 1.660156 26.558594 2.152344 27.574219 C 2.644531 28.59375 4.578125 30.542969 5.574219 30.0625 C 6.566406 29.582031 6.648438 27.691406 5.753906 25.835938 "/></g><path style=" stroke:none;fill-rule:nonzero;fill:#0119ff;fill-opacity:1;" d="M 15.03125 29.140625 C 14.765625 28.59375 14.113281 28.363281 13.566406 28.628906 C 13.019531 28.890625 12.792969 29.546875 13.054688 30.09375 C 13.320312 30.636719 13.976562 30.867188 14.519531 30.601562 C 15.066406 30.339844 15.296875 29.683594 15.03125 29.140625 "/><g clip-rule="nonzero" clip-path="url(#dff88705aa)"><path style=" stroke:none;fill-rule:nonzero;fill:#0119ff;fill-opacity:1;" d="M 30.152344 2.710938 L 27.617188 6.925781 L 26.300781 6.074219 L 25.007812 11.8125 L 26.789062 8.5 L 28.726562 9.296875 L 30.152344 2.710938 "/></g><g clip-rule="nonzero" clip-path="url(#ce1c892891)"><path style=" stroke:none;fill-rule:nonzero;fill:#0119ff;fill-opacity:1;" d="M 37.339844 23.640625 L 32.953125 21.40625 L 33.710938 20.035156 L 27.894531 19.152344 L 31.324219 20.695312 L 30.667969 22.683594 L 37.339844 23.640625 "/></g><path style=" stroke:none;fill-rule:nonzero;fill:#0119ff;fill-opacity:1;" d="M 36.066406 12.332031 L 32.5625 13.757812 L 32.144531 12.632812 L 28.703125 15.570312 L 31.328125 14.347656 L 32.15625 15.730469 L 36.066406 12.332031 "/></g></svg>