<svg xmlns="http://www.w3.org/2000/svg" xmlns:xlink="http://www.w3.org/1999/xlink" width="52" zoomAndPan="magnify" viewBox="0 0 39 38.999999" height="52" preserveAspectRatio="xMidYMid meet" version="1.2"><defs><clipPath id="56ac1b2e8f"><path d="M 1.402344 23 L 10 23 L 10 38 L 1.402344 38 Z M 1.402344 23 "/></clipPath><clipPath id="366b736ab1"><path d="M 8 21 L 37.402344 21 L 37.402344 35 L 8 35 Z M 8 21 "/></clipPath><clipPath id="a64a627fc3"><path d="M 14 1.285156 L 30 1.285156 L 30 17 L 14 17 Z M 14 1.285156 "/></clipPath><clipPath id="dfdb892367"><path d="M 7 1.285156 L 14 1.285156 L 14 8 L 7 8 Z M 7 1.285156 "/></clipPath><clipPath id="aa6a0dacc7"><path d="M 29 1.285156 L 36 1.285156 L 36 8 L 29 8 Z M 29 1.285156 "/></clipPath></defs><g id="7b6ab0811c"><rect x="0" width="39" y="0" height="38.999999" style="fill:#ffffff;fill-opacity:1;stroke:none;"/><rect x="0" width="39" y="0" height="38.999999" style="fill:#ffffff;fill-opacity:1;stroke:none;"/><g clip-rule="nonzero" clip-path="url(#56ac1b2e8f)"><path style=" stroke:none;fill-rule:nonzero;fill:#0119ff;fill-opacity:1;" d="M 5.164062 37.519531 C 5.082031 37.519531 5 37.5 4.925781 37.457031 C 4.820312 37.394531 4.738281 37.292969 4.707031 37.171875 L 1.441406 24.976562 C 1.40625 24.855469 1.425781 24.726562 1.488281 24.617188 C 1.550781 24.511719 1.652344 24.429688 1.773438 24.398438 L 4.382812 23.699219 C 4.917969 23.558594 5.472656 23.628906 5.949219 23.90625 C 6.425781 24.179688 6.765625 24.625 6.910156 25.15625 L 9.355469 34.28125 C 9.496094 34.8125 9.421875 35.367188 9.148438 35.84375 C 8.871094 36.320312 8.429688 36.660156 7.898438 36.804688 L 5.285156 37.503906 C 5.242188 37.515625 5.203125 37.519531 5.164062 37.519531 Z M 2.46875 25.1875 L 5.496094 36.472656 L 7.652344 35.894531 C 7.941406 35.816406 8.183594 35.632812 8.332031 35.371094 C 8.480469 35.113281 8.523438 34.8125 8.445312 34.523438 L 6 25.402344 C 5.921875 25.113281 5.738281 24.871094 5.476562 24.71875 C 5.21875 24.570312 4.917969 24.53125 4.628906 24.609375 Z M 2.46875 25.1875 "/></g><path style=" stroke:none;fill-rule:nonzero;fill:#0119ff;fill-opacity:1;" d="M 6.601562 35.414062 C 6.378906 35.414062 6.160156 35.355469 5.960938 35.242188 C 5.664062 35.070312 5.453125 34.792969 5.363281 34.464844 C 5.273438 34.132812 5.320312 33.785156 5.492188 33.488281 C 5.664062 33.191406 5.941406 32.980469 6.273438 32.890625 C 6.601562 32.804688 6.949219 32.847656 7.246094 33.019531 C 7.542969 33.191406 7.753906 33.46875 7.84375 33.800781 C 8.027344 34.484375 7.621094 35.1875 6.9375 35.371094 C 6.824219 35.402344 6.710938 35.414062 6.601562 35.414062 Z M 6.605469 33.789062 C 6.574219 33.789062 6.542969 33.792969 6.515625 33.800781 C 6.425781 33.824219 6.351562 33.882812 6.308594 33.960938 C 6.261719 34.039062 6.25 34.132812 6.273438 34.21875 C 6.296875 34.308594 6.351562 34.382812 6.433594 34.425781 C 6.511719 34.472656 6.605469 34.484375 6.691406 34.460938 C 6.875 34.414062 6.984375 34.226562 6.933594 34.042969 C 6.910156 33.953125 6.855469 33.882812 6.773438 33.835938 C 6.722656 33.804688 6.664062 33.789062 6.605469 33.789062 Z M 6.605469 33.789062 "/><path style=" stroke:none;fill-rule:nonzero;fill:#0119ff;fill-opacity:1;" d="M 24.890625 29.402344 C 24.867188 29.402344 24.84375 29.402344 24.816406 29.398438 L 17.777344 29.148438 C 17.515625 29.136719 17.3125 28.917969 17.324219 28.660156 C 17.332031 28.398438 17.550781 28.195312 17.808594 28.207031 L 24.851562 28.460938 C 25.386719 28.476562 25.839844 28.078125 25.882812 27.542969 C 25.890625 27.429688 25.878906 27.316406 25.851562 27.207031 C 25.839844 27.171875 25.832031 27.136719 25.816406 27.101562 C 25.699219 26.804688 25.449219 26.582031 25.140625 26.5 L 13.945312 23.554688 C 12.78125 23.25 11.542969 23.355469 10.449219 23.851562 L 6.613281 25.589844 C 6.375 25.695312 6.097656 25.589844 5.988281 25.355469 C 5.882812 25.117188 5.988281 24.839844 6.222656 24.730469 L 10.058594 22.996094 C 11.347656 22.410156 12.8125 22.285156 14.1875 22.644531 L 25.382812 25.589844 C 25.976562 25.746094 26.46875 26.183594 26.691406 26.757812 C 26.71875 26.824219 26.742188 26.894531 26.761719 26.960938 C 26.816406 27.179688 26.835938 27.398438 26.820312 27.621094 C 26.738281 28.632812 25.898438 29.402344 24.890625 29.402344 Z M 24.890625 29.402344 "/><g clip-rule="nonzero" clip-path="url(#366b736ab1)"><path style=" stroke:none;fill-rule:nonzero;fill:#0119ff;fill-opacity:1;" d="M 8.871094 34.765625 C 8.703125 34.765625 8.539062 34.675781 8.453125 34.515625 C 8.332031 34.285156 8.421875 34 8.652344 33.878906 L 10.25 33.035156 C 11.375 32.445312 12.632812 32.214844 13.894531 32.371094 L 22.960938 33.503906 C 24.378906 33.679688 25.808594 33.246094 26.886719 32.3125 L 36 24.445312 C 36.242188 24.238281 36.390625 23.945312 36.410156 23.628906 C 36.429688 23.308594 36.328125 23.003906 36.113281 22.761719 C 35.8125 22.425781 35.355469 22.289062 34.921875 22.40625 C 34.820312 22.433594 34.71875 22.472656 34.625 22.527344 L 26.492188 27.332031 C 26.269531 27.464844 25.980469 27.390625 25.847656 27.167969 C 25.714844 26.941406 25.789062 26.65625 26.011719 26.523438 L 34.148438 21.71875 C 34.316406 21.621094 34.492188 21.542969 34.679688 21.496094 C 35.460938 21.285156 36.28125 21.53125 36.820312 22.136719 C 37.199219 22.566406 37.386719 23.117188 37.351562 23.691406 C 37.3125 24.261719 37.050781 24.78125 36.617188 25.15625 L 27.503906 33.027344 C 26.222656 34.132812 24.527344 34.648438 22.84375 34.4375 L 13.777344 33.304688 C 12.710938 33.171875 11.640625 33.367188 10.691406 33.867188 L 9.089844 34.710938 C 9.019531 34.75 8.945312 34.765625 8.871094 34.765625 Z M 8.871094 34.765625 "/></g><g clip-rule="nonzero" clip-path="url(#a64a627fc3)"><path style=" stroke:none;fill-rule:nonzero;fill:#0119ff;fill-opacity:1;" d="M 21.691406 16.867188 C 17.46875 16.867188 14.035156 13.429688 14.035156 9.210938 C 14.035156 4.988281 17.46875 1.550781 21.691406 1.550781 C 25.914062 1.550781 29.351562 4.988281 29.351562 9.210938 C 29.351562 13.429688 25.914062 16.867188 21.691406 16.867188 Z M 21.691406 2.492188 C 17.988281 2.492188 14.976562 5.503906 14.976562 9.207031 C 14.976562 12.910156 17.988281 15.925781 21.691406 15.925781 C 25.394531 15.925781 28.410156 12.914062 28.410156 9.207031 C 28.410156 5.503906 25.394531 2.492188 21.691406 2.492188 Z M 21.691406 2.492188 "/></g><path style=" stroke:none;fill-rule:nonzero;fill:#0119ff;fill-opacity:1;" d="M 19.589844 12.914062 C 19.492188 12.914062 19.398438 12.882812 19.3125 12.824219 C 19.160156 12.714844 19.089844 12.519531 19.132812 12.335938 L 19.632812 10.21875 L 17.984375 8.800781 C 17.839844 8.679688 17.785156 8.480469 17.84375 8.300781 C 17.902344 8.121094 18.0625 7.992188 18.253906 7.976562 L 20.417969 7.796875 L 21.257812 5.792969 C 21.332031 5.617188 21.503906 5.503906 21.691406 5.503906 C 21.882812 5.503906 22.054688 5.617188 22.125 5.792969 L 22.964844 7.796875 L 25.132812 7.976562 C 25.320312 7.992188 25.480469 8.121094 25.539062 8.300781 C 25.597656 8.480469 25.542969 8.679688 25.398438 8.800781 L 23.753906 10.21875 L 24.25 12.335938 C 24.296875 12.519531 24.222656 12.714844 24.070312 12.824219 C 23.917969 12.9375 23.710938 12.945312 23.550781 12.84375 L 21.691406 11.71875 L 19.835938 12.84375 C 19.757812 12.890625 19.675781 12.914062 19.589844 12.914062 Z M 19.449219 8.820312 L 20.460938 9.695312 C 20.59375 9.808594 20.652344 9.988281 20.613281 10.160156 L 20.304688 11.457031 L 21.449219 10.765625 C 21.597656 10.675781 21.785156 10.675781 21.9375 10.765625 L 23.078125 11.457031 L 22.769531 10.160156 C 22.730469 9.988281 22.789062 9.808594 22.921875 9.695312 L 23.933594 8.820312 L 22.605469 8.710938 C 22.429688 8.695312 22.277344 8.585938 22.207031 8.425781 L 21.691406 7.191406 L 21.175781 8.425781 C 21.109375 8.585938 20.957031 8.699219 20.78125 8.710938 Z M 19.449219 8.820312 "/><path style=" stroke:none;fill-rule:nonzero;fill:#0119ff;fill-opacity:1;" d="M 19.609375 22.667969 C 19.429688 22.667969 19.265625 22.566406 19.1875 22.402344 L 17.980469 19.9375 L 15.703125 21.46875 C 15.539062 21.578125 15.324219 21.578125 15.167969 21.464844 C 15.007812 21.347656 14.933594 21.148438 14.984375 20.957031 L 16.675781 14.640625 C 16.71875 14.488281 16.835938 14.363281 16.988281 14.316406 C 17.140625 14.265625 17.308594 14.300781 17.429688 14.398438 C 18.507812 15.285156 19.8125 15.808594 21.203125 15.90625 C 21.34375 15.917969 21.472656 15.988281 21.550781 16.105469 C 21.632812 16.21875 21.660156 16.363281 21.625 16.5 L 20.0625 22.316406 C 20.011719 22.507812 19.851562 22.644531 19.65625 22.664062 C 19.640625 22.667969 19.625 22.667969 19.609375 22.667969 Z M 18.167969 18.773438 C 18.207031 18.773438 18.246094 18.777344 18.289062 18.789062 C 18.417969 18.824219 18.527344 18.917969 18.589844 19.039062 L 19.480469 20.863281 L 20.574219 16.785156 C 19.433594 16.617188 18.359375 16.199219 17.40625 15.554688 L 16.21875 19.988281 L 17.902344 18.855469 C 17.980469 18.800781 18.074219 18.773438 18.167969 18.773438 Z M 18.167969 18.773438 "/><path style=" stroke:none;fill-rule:nonzero;fill:#0119ff;fill-opacity:1;" d="M 23.773438 22.667969 C 23.761719 22.667969 23.746094 22.667969 23.730469 22.664062 C 23.535156 22.648438 23.371094 22.507812 23.320312 22.320312 L 21.761719 16.5 C 21.722656 16.363281 21.75 16.21875 21.832031 16.105469 C 21.914062 15.988281 22.042969 15.917969 22.179688 15.910156 C 23.570312 15.808594 24.875 15.289062 25.953125 14.402344 C 26.078125 14.300781 26.242188 14.269531 26.394531 14.316406 C 26.546875 14.367188 26.664062 14.488281 26.707031 14.644531 L 28.398438 20.957031 C 28.449219 21.148438 28.378906 21.347656 28.21875 21.464844 C 28.058594 21.578125 27.84375 21.582031 27.679688 21.472656 L 25.402344 19.9375 L 24.195312 22.40625 C 24.117188 22.566406 23.953125 22.667969 23.773438 22.667969 Z M 22.8125 16.785156 L 23.902344 20.863281 L 24.796875 19.039062 C 24.855469 18.917969 24.964844 18.828125 25.097656 18.792969 C 25.226562 18.757812 25.367188 18.78125 25.480469 18.855469 L 27.164062 19.988281 L 25.976562 15.558594 C 25.027344 16.203125 23.949219 16.617188 22.8125 16.785156 Z M 22.8125 16.785156 "/><path style=" stroke:none;fill-rule:nonzero;fill:#0119ff;fill-opacity:1;" d="M 21.691406 15.210938 C 18.382812 15.210938 15.691406 12.519531 15.691406 9.210938 C 15.691406 5.898438 18.382812 3.207031 21.691406 3.207031 C 25 3.207031 27.691406 5.898438 27.691406 9.210938 C 27.691406 12.519531 25 15.210938 21.691406 15.210938 Z M 21.691406 4.148438 C 18.902344 4.148438 16.632812 6.417969 16.632812 9.210938 C 16.632812 12 18.902344 14.269531 21.691406 14.269531 C 24.480469 14.269531 26.75 12 26.75 9.210938 C 26.75 6.417969 24.480469 4.148438 21.691406 4.148438 Z M 21.691406 4.148438 "/><path style=" stroke:none;fill-rule:nonzero;fill:#0119ff;fill-opacity:1;" d="M 10.203125 18.003906 C 10.015625 18.003906 9.847656 17.894531 9.773438 17.71875 L 9.046875 16.023438 L 7.347656 15.296875 C 7.175781 15.222656 7.0625 15.050781 7.0625 14.863281 C 7.0625 14.675781 7.175781 14.503906 7.347656 14.433594 L 9.046875 13.703125 L 9.773438 12.007812 C 9.847656 11.835938 10.015625 11.722656 10.203125 11.722656 C 10.390625 11.722656 10.5625 11.835938 10.636719 12.007812 L 11.363281 13.703125 L 13.0625 14.433594 C 13.234375 14.507812 13.347656 14.675781 13.347656 14.863281 C 13.347656 15.050781 13.234375 15.222656 13.0625 15.296875 L 11.363281 16.023438 L 10.636719 17.71875 C 10.5625 17.894531 10.390625 18.003906 10.203125 18.003906 Z M 8.726562 14.863281 L 9.585938 15.230469 C 9.699219 15.277344 9.789062 15.367188 9.835938 15.480469 L 10.203125 16.339844 L 10.574219 15.480469 C 10.621094 15.367188 10.707031 15.28125 10.820312 15.230469 L 11.679688 14.863281 L 10.820312 14.496094 C 10.707031 14.449219 10.621094 14.359375 10.574219 14.246094 L 10.203125 13.386719 L 9.835938 14.246094 C 9.789062 14.359375 9.699219 14.445312 9.585938 14.496094 Z M 8.726562 14.863281 "/><g clip-rule="nonzero" clip-path="url(#dfdb892367)"><path style=" stroke:none;fill-rule:nonzero;fill:#0119ff;fill-opacity:1;" d="M 10.703125 7.878906 C 10.511719 7.878906 10.34375 7.765625 10.269531 7.59375 L 9.542969 5.898438 L 7.84375 5.167969 C 7.671875 5.09375 7.558594 4.925781 7.558594 4.738281 C 7.558594 4.550781 7.671875 4.378906 7.84375 4.304688 L 9.542969 3.578125 L 10.269531 1.882812 C 10.34375 1.707031 10.511719 1.597656 10.703125 1.597656 C 10.890625 1.597656 11.058594 1.707031 11.132812 1.882812 L 11.859375 3.578125 L 13.558594 4.304688 C 13.730469 4.378906 13.84375 4.550781 13.84375 4.738281 C 13.84375 4.925781 13.730469 5.097656 13.558594 5.167969 L 11.859375 5.898438 L 11.132812 7.59375 C 11.058594 7.765625 10.890625 7.878906 10.703125 7.878906 Z M 9.226562 4.738281 L 10.085938 5.105469 C 10.195312 5.152344 10.285156 5.242188 10.332031 5.355469 L 10.703125 6.214844 L 11.070312 5.355469 C 11.117188 5.242188 11.207031 5.15625 11.316406 5.105469 L 12.175781 4.738281 L 11.316406 4.371094 C 11.207031 4.320312 11.117188 4.234375 11.070312 4.121094 L 10.703125 3.261719 L 10.332031 4.121094 C 10.285156 4.234375 10.195312 4.320312 10.085938 4.371094 Z M 9.226562 4.738281 "/></g><g clip-rule="nonzero" clip-path="url(#aa6a0dacc7)"><path style=" stroke:none;fill-rule:nonzero;fill:#0119ff;fill-opacity:1;" d="M 32.5 7.570312 C 32.3125 7.570312 32.140625 7.457031 32.066406 7.285156 L 31.339844 5.585938 L 29.644531 4.859375 C 29.472656 4.785156 29.359375 4.613281 29.359375 4.425781 C 29.359375 4.238281 29.472656 4.070312 29.644531 3.996094 L 31.339844 3.269531 L 32.066406 1.570312 C 32.140625 1.398438 32.3125 1.285156 32.5 1.285156 C 32.6875 1.285156 32.859375 1.398438 32.933594 1.570312 L 33.660156 3.269531 L 35.355469 3.996094 C 35.53125 4.070312 35.640625 4.238281 35.640625 4.425781 C 35.640625 4.613281 35.53125 4.785156 35.355469 4.859375 L 33.660156 5.585938 L 32.933594 7.285156 C 32.859375 7.457031 32.6875 7.570312 32.5 7.570312 Z M 31.023438 4.425781 L 31.882812 4.796875 C 31.996094 4.84375 32.082031 4.933594 32.128906 5.042969 L 32.5 5.902344 L 32.867188 5.042969 C 32.914062 4.933594 33.003906 4.84375 33.117188 4.796875 L 33.976562 4.425781 L 33.117188 4.058594 C 33.003906 4.011719 32.914062 3.921875 32.867188 3.8125 L 32.5 2.949219 L 32.128906 3.8125 C 32.082031 3.921875 31.996094 4.011719 31.882812 4.058594 Z M 31.023438 4.425781 "/></g><path style=" stroke:none;fill-rule:nonzero;fill:#0119ff;fill-opacity:1;" d="M 33.6875 18.9375 C 33.5 18.9375 33.328125 18.824219 33.253906 18.652344 L 32.527344 16.953125 L 30.832031 16.226562 C 30.65625 16.152344 30.546875 15.984375 30.546875 15.796875 C 30.546875 15.609375 30.65625 15.4375 30.832031 15.363281 L 32.527344 14.636719 L 33.253906 12.9375 C 33.328125 12.765625 33.5 12.652344 33.6875 12.652344 C 33.875 12.652344 34.046875 12.765625 34.117188 12.9375 L 34.84375 14.636719 L 36.542969 15.363281 C 36.714844 15.4375 36.828125 15.609375 36.828125 15.796875 C 36.828125 15.984375 36.714844 16.152344 36.542969 16.226562 L 34.84375 16.953125 L 34.117188 18.652344 C 34.046875 18.824219 33.875 18.9375 33.6875 18.9375 Z M 32.210938 15.796875 L 33.070312 16.164062 C 33.179688 16.210938 33.269531 16.300781 33.316406 16.410156 L 33.6875 17.273438 L 34.054688 16.410156 C 34.101562 16.300781 34.191406 16.210938 34.304688 16.164062 L 35.164062 15.796875 L 34.304688 15.425781 C 34.191406 15.378906 34.105469 15.289062 34.054688 15.179688 L 33.6875 14.320312 L 33.316406 15.179688 C 33.269531 15.289062 33.179688 15.378906 33.070312 15.425781 Z M 32.210938 15.796875 "/></g></svg>