<svg xmlns="http://www.w3.org/2000/svg" xmlns:xlink="http://www.w3.org/1999/xlink" width="52" zoomAndPan="magnify" viewBox="0 0 39 38.999999" height="52" preserveAspectRatio="xMidYMid meet" version="1.2"><defs><clipPath id="027499fc27"><path d="M 1.03125 5.347656 L 37.78125 5.347656 L 37.78125 33.847656 L 1.03125 33.847656 Z M 1.03125 5.347656 "/></clipPath></defs><g id="15fd3a2bf3"><rect x="0" width="39" y="0" height="38.999999" style="fill:#ffffff;fill-opacity:1;stroke:none;"/><rect x="0" width="39" y="0" height="38.999999" style="fill:#ffffff;fill-opacity:1;stroke:none;"/><g clip-rule="nonzero" clip-path="url(#027499fc27)"><path style=" stroke:none;fill-rule:nonzero;fill:#0119ff;fill-opacity:1;" d="M 27.984375 24.546875 C 27.941406 24.507812 27.941406 24.425781 27.941406 24.34375 L 27.941406 16.582031 C 27.941406 12.148438 24.566406 8.53125 20.21875 8.082031 L 20.21875 6.214844 C 20.21875 5.765625 19.851562 5.402344 19.40625 5.402344 C 18.957031 5.402344 18.59375 5.765625 18.59375 6.214844 L 18.59375 8.082031 C 14.28125 8.492188 10.867188 12.148438 10.867188 16.582031 L 10.867188 24.386719 C 10.867188 24.46875 10.828125 24.507812 10.785156 24.546875 L 8.753906 26.582031 C 8.386719 26.945312 8.226562 27.394531 8.226562 27.921875 L 8.226562 28.53125 C 8.226562 29.546875 9.078125 30.402344 10.09375 30.402344 L 15.785156 30.402344 C 16.070312 32.109375 17.574219 33.449219 19.40625 33.449219 C 21.234375 33.449219 22.738281 32.148438 23.023438 30.402344 L 28.714844 30.402344 C 29.730469 30.402344 30.585938 29.546875 30.585938 28.53125 L 30.585938 27.921875 C 30.585938 27.433594 30.382812 26.945312 30.054688 26.582031 Z M 19.40625 31.824219 C 18.511719 31.824219 17.738281 31.214844 17.496094 30.402344 L 21.355469 30.402344 C 21.070312 31.214844 20.300781 31.824219 19.40625 31.824219 Z M 28.957031 28.53125 C 28.957031 28.652344 28.835938 28.777344 28.714844 28.777344 L 10.09375 28.777344 C 9.972656 28.777344 9.851562 28.652344 9.851562 28.53125 L 9.851562 27.921875 C 9.851562 27.839844 9.890625 27.800781 9.933594 27.761719 L 11.964844 25.726562 C 12.332031 25.359375 12.496094 24.914062 12.496094 24.386719 L 12.496094 16.582031 C 12.496094 12.800781 15.582031 9.667969 19.40625 9.667969 C 23.226562 9.667969 26.316406 12.757812 26.316406 16.582031 L 26.316406 24.386719 C 26.316406 24.875 26.519531 25.359375 26.84375 25.726562 L 28.878906 27.761719 C 28.917969 27.800781 28.957031 27.882812 28.957031 27.921875 Z M 8.265625 23.695312 C 8.105469 23.855469 7.902344 23.9375 7.695312 23.9375 C 7.492188 23.9375 7.289062 23.855469 7.128906 23.695312 C 5.828125 22.394531 5.09375 20.644531 5.09375 18.816406 C 5.09375 16.988281 5.828125 15.238281 7.128906 13.9375 C 7.453125 13.613281 7.941406 13.613281 8.265625 13.9375 C 8.589844 14.261719 8.589844 14.75 8.265625 15.074219 C 7.25 16.09375 6.722656 17.394531 6.722656 18.816406 C 6.722656 20.238281 7.289062 21.539062 8.265625 22.554688 C 8.589844 22.882812 8.589844 23.371094 8.265625 23.695312 Z M 5.378906 25.441406 C 5.707031 25.769531 5.707031 26.253906 5.378906 26.582031 C 5.21875 26.742188 5.015625 26.824219 4.8125 26.824219 C 4.609375 26.824219 4.402344 26.742188 4.242188 26.582031 C 2.167969 24.507812 1.03125 21.742188 1.03125 18.816406 C 1.03125 15.890625 2.167969 13.125 4.242188 11.050781 C 4.566406 10.726562 5.054688 10.726562 5.378906 11.050781 C 5.707031 11.375 5.707031 11.863281 5.378906 12.191406 C 3.632812 13.9375 2.65625 16.296875 2.65625 18.816406 C 2.65625 21.335938 3.632812 23.652344 5.378906 25.441406 Z M 31.683594 23.695312 C 31.519531 23.855469 31.316406 23.9375 31.113281 23.9375 C 30.910156 23.9375 30.707031 23.855469 30.542969 23.695312 C 30.21875 23.371094 30.21875 22.882812 30.542969 22.554688 C 32.617188 20.484375 32.617188 17.148438 30.542969 15.074219 C 30.21875 14.75 30.21875 14.261719 30.542969 13.9375 C 30.871094 13.613281 31.355469 13.613281 31.683594 13.9375 C 34.367188 16.621094 34.367188 21.011719 31.683594 23.695312 Z M 37.78125 18.816406 C 37.78125 21.742188 36.640625 24.507812 34.570312 26.582031 C 34.40625 26.742188 34.203125 26.824219 34 26.824219 C 33.796875 26.824219 33.59375 26.742188 33.429688 26.582031 C 33.105469 26.253906 33.105469 25.769531 33.429688 25.441406 C 35.179688 23.695312 36.152344 21.335938 36.152344 18.816406 C 36.152344 16.296875 35.179688 13.980469 33.429688 12.191406 C 33.105469 11.863281 33.105469 11.375 33.429688 11.050781 C 33.753906 10.726562 34.242188 10.726562 34.570312 11.050781 C 36.640625 13.125 37.78125 15.890625 37.78125 18.816406 Z M 37.78125 18.816406 "/></g></g></svg>